<svg id="Layer_1" data-name="Layer 1" xmlns="http://www.w3.org/2000/svg" viewBox="0 0 250.56 250.56"><path d="M127.2,248.84a6.1,6.1,0,0,1-.1-12.19,110.94,110.94,0,0,0,75.59-31.27,6.1,6.1,0,0,1,8.47,8.77,123.07,123.07,0,0,1-83.87,34.69Z"/><path d="M123.36,13.91a6.1,6.1,0,0,1-.09-12.19l.56,0c.48,0,1-.07,1.45-.07a6.1,6.1,0,1,1,0,12.19l-.58,0c-.42,0-.83.05-1.25.06Z"/><path d="M7.72,131.38a6.1,6.1,0,0,1-6.1-6.1,123.67,123.67,0,0,1,42.22-92.9,6.1,6.1,0,0,1,8,9.17,111.47,111.47,0,0,0-38.07,83.73A6.09,6.09,0,0,1,7.72,131.38Z"/><path d="M123.36,248.84h-.09A123.09,123.09,0,0,1,39.4,214.15a6.1,6.1,0,0,1,8.48-8.77,110.92,110.92,0,0,0,75.58,31.27,6.1,6.1,0,0,1-.1,12.19Z"/><path d="M43.64,215.86a6.08,6.08,0,0,1-4.24-1.71A122.62,122.62,0,0,1,1.62,125.28a6.1,6.1,0,0,1,12.19,0,110.5,110.5,0,0,0,34.07,80.1,6.1,6.1,0,0,1-4.24,10.48Z"/><path d="M125.28,248.94c-.5,0-1,0-1.49-.06l-.56,0a6.1,6.1,0,0,1,.13-12.19h.14c.4,0,.79,0,1.18.07l.6,0a6.1,6.1,0,1,1,0,12.19Z"/><path d="M125.28,248.94a6.1,6.1,0,0,1,0-12.19l.6,0c.39,0,.78-.06,1.18-.07a6.27,6.27,0,0,1,6.23,6,6.09,6.09,0,0,1-6,6.23l-.55,0C126.28,248.91,125.79,248.94,125.28,248.94Z"/><path d="M202.7,43.06a6.08,6.08,0,0,1-4-1.51A111.4,111.4,0,0,0,127.1,13.91a6.1,6.1,0,1,1,.2-12.19,123.55,123.55,0,0,1,79.42,30.66,6.09,6.09,0,0,1-4,10.68Z"/><path d="M47.86,43.06a6.1,6.1,0,0,1-4-10.68A123.6,123.6,0,0,1,123.26,1.72a6,6,0,0,1,6.2,6,6.1,6.1,0,0,1-6,6.19A111.35,111.35,0,0,0,51.88,41.55,6.1,6.1,0,0,1,47.86,43.06Z"/><path d="M127.2,13.91h-.09c-.42,0-.83,0-1.25-.06l-.58,0a6.1,6.1,0,0,1,0-12.19c.49,0,1,0,1.46.07l.55,0a6.1,6.1,0,0,1-.09,12.19Z"/><path d="M206.92,215.86a6.1,6.1,0,0,1-4.23-10.48,111.17,111.17,0,0,0-4-163.83,6.09,6.09,0,1,1,8-9.17,123.36,123.36,0,0,1,4.44,181.77A6,6,0,0,1,206.92,215.86Z"/><path d="M82.84,62.57a6.11,6.11,0,0,1-5.33-9A149.71,149.71,0,0,1,121.76,4.27a6.09,6.09,0,1,1,7,10A137.62,137.62,0,0,0,88.17,59.43,6.08,6.08,0,0,1,82.84,62.57Z"/><path d="M125.29,15.34a6.09,6.09,0,0,1-3.52-11.07l.67-.51c.43-.34.86-.66,1.3-1a6.1,6.1,0,0,1,6.92,10.05c-.26.17-.5.36-.74.55s-.74.57-1.12.84A6.11,6.11,0,0,1,125.29,15.34Z"/><path d="M79.72,194a6.07,6.07,0,0,1-5.47-3.41,146.51,146.51,0,0,1-15.31-65.28,6.1,6.1,0,0,1,12.2,0,134.58,134.58,0,0,0,14,59.9A6.1,6.1,0,0,1,79.72,194Z"/><path d="M127.19,248.84a6.14,6.14,0,0,1-3.41-1c-.47-.32-.92-.67-1.37-1l-.64-.49a6.1,6.1,0,1,1,7-10q.55.39,1.08.81c.24.19.48.38.73.55a6.09,6.09,0,0,1-3.42,11.14Z"/><path d="M125.28,247.41a6.11,6.11,0,0,1-3.52-1.11,149.17,149.17,0,0,1-47.52-55.74,6.1,6.1,0,0,1,11-5.38,136.8,136.8,0,0,0,43.61,51.16,6.09,6.09,0,0,1-3.52,11.07Z"/><path d="M65,131.38a6.1,6.1,0,0,1-6.1-6.1A148.27,148.27,0,0,1,77.51,53.52a6.09,6.09,0,1,1,10.66,5.91,136.18,136.18,0,0,0-17,65.85A6.1,6.1,0,0,1,65,131.38Z"/><path d="M82.84,62.57a6.09,6.09,0,0,1-2.08-.37,130.36,130.36,0,0,1-36.7-20.46,6.1,6.1,0,0,1,7.59-9.55A118,118,0,0,0,84.92,50.74a6.1,6.1,0,0,1-2.08,11.83Z"/><path d="M167.72,62.57a6.1,6.1,0,0,1-2.08-11.83,118,118,0,0,0,33.27-18.55,6.1,6.1,0,1,1,7.59,9.55A130.36,130.36,0,0,1,169.8,62.2,6.09,6.09,0,0,1,167.72,62.57Z"/><path d="M125.28,70.14a6.1,6.1,0,0,1,0-12.19,117.93,117.93,0,0,0,40.36-7.21A6.1,6.1,0,0,1,169.8,62.2,130.23,130.23,0,0,1,125.28,70.14Z"/><path d="M125.28,70.14A130.18,130.18,0,0,1,80.77,62.2a6.09,6.09,0,1,1,4.15-11.46A118,118,0,0,0,125.28,58a6.1,6.1,0,1,1,0,12.19Z"/><path d="M206.92,215.86a6.12,6.12,0,0,1-4-1.49,118,118,0,0,0-34.31-20.83,6.09,6.09,0,0,1,4.47-11.34,130.24,130.24,0,0,1,37.85,23,6.09,6.09,0,0,1-4,10.69Z"/><path d="M170.85,194a6.1,6.1,0,0,1-2.24-.43,117.92,117.92,0,0,0-43.33-8.29,6.1,6.1,0,0,1,0-12.19,129.91,129.91,0,0,1,47.8,9.14A6.1,6.1,0,0,1,170.85,194Z"/><path d="M79.71,194a6.1,6.1,0,0,1-2.23-11.77,130,130,0,0,1,47.8-9.14,6.1,6.1,0,1,1,0,12.19A117.92,117.92,0,0,0,82,193.54,6.1,6.1,0,0,1,79.71,194Z"/><path d="M43.65,215.86a6.09,6.09,0,0,1-4-10.69,130.14,130.14,0,0,1,37.84-23A6.09,6.09,0,1,1,82,193.54a118.09,118.09,0,0,0-34.31,20.83A6.07,6.07,0,0,1,43.65,215.86Z"/><path d="M185.52,131.38a6.09,6.09,0,0,1-6.09-6.1,136.19,136.19,0,0,0-17-65.85,6.09,6.09,0,1,1,10.66-5.91,148.27,148.27,0,0,1,18.57,71.76A6.1,6.1,0,0,1,185.52,131.38Z"/><path d="M125.28,15.34a6.06,6.06,0,0,1-3.48-1.09c-.41-.28-.8-.58-1.19-.89-.23-.18-.46-.36-.7-.52a6.1,6.1,0,0,1,6.91-10c.43.3.84.62,1.26.94l.68.51a6.09,6.09,0,0,1-3.48,11.1Z"/><path d="M123.37,248.84A6.09,6.09,0,0,1,120,237.7c.24-.16.47-.34.69-.52.39-.3.77-.59,1.16-.87a6.1,6.1,0,1,1,7,10l-.65.49c-.43.34-.87.68-1.33,1A6.12,6.12,0,0,1,123.37,248.84Z"/><path d="M170.84,194a6,6,0,0,1-2.68-.63,6.09,6.09,0,0,1-2.78-8.16,134.59,134.59,0,0,0,14.05-59.9,6.1,6.1,0,0,1,12.19,0,146.63,146.63,0,0,1-15.3,65.28A6.1,6.1,0,0,1,170.84,194Z"/><path d="M125.29,247.41a6.1,6.1,0,0,1-3.53-11.07,136.83,136.83,0,0,0,43.62-51.16,6.1,6.1,0,1,1,10.94,5.38A149.17,149.17,0,0,1,128.8,246.3,6.06,6.06,0,0,1,125.29,247.41Z"/><path d="M167.72,62.57a6.08,6.08,0,0,1-5.33-3.14,137.6,137.6,0,0,0-40.63-45.21,6.09,6.09,0,0,1,7-10,149.59,149.59,0,0,1,44.25,49.25,6.1,6.1,0,0,1-5.33,9Z"/><path d="M65,131.38H7.72a6.1,6.1,0,1,1,0-12.19H65a6.1,6.1,0,1,1,0,12.19Z"/><path d="M185.52,131.38H125.28a6.1,6.1,0,0,1,0-12.19h60.24a6.1,6.1,0,1,1,0,12.19Z"/><path d="M125.28,131.38H65a6.1,6.1,0,1,1,0-12.19h60.24a6.1,6.1,0,1,1,0,12.19Z"/><path d="M239.37,131.38H185.52a6.1,6.1,0,0,1,0-12.19h53.85a6.1,6.1,0,1,1,0,12.19Z"/><path d="M125.28,70.14a6.09,6.09,0,0,1-6.09-6.09V9.25a6.1,6.1,0,1,1,12.19,0v54.8A6.1,6.1,0,0,1,125.28,70.14Z"/><path d="M125.28,131.38a6.1,6.1,0,0,1-6.09-6.1V64.05a6.1,6.1,0,1,1,12.19,0v61.23A6.1,6.1,0,0,1,125.28,131.38Z"/><path d="M125.28,247.41a6.09,6.09,0,0,1-6.09-6.09V179.15a6.1,6.1,0,0,1,12.19,0v62.17A6.09,6.09,0,0,1,125.28,247.41Z"/><path d="M125.28,15.34a6.09,6.09,0,0,1-6.09-6.09V7.72a6.1,6.1,0,1,1,12.19,0V9.25A6.1,6.1,0,0,1,125.28,15.34Z"/><path d="M125.28,185.25a6.1,6.1,0,0,1-6.09-6.1V125.28a6.1,6.1,0,0,1,12.19,0v53.87A6.1,6.1,0,0,1,125.28,185.25Z"/><path d="M125.28,248.94a6.09,6.09,0,0,1-6.09-6.09v-1.53a6.1,6.1,0,1,1,12.19,0v1.53A6.1,6.1,0,0,1,125.28,248.94Z"/></svg>