<svg id="Layer_1" data-name="Layer 1" xmlns="http://www.w3.org/2000/svg" viewBox="0 0 248.05 230.69"><defs><style>.cls-1{fill:none;stroke:#000;stroke-miterlimit:10;stroke-width:19px;}</style></defs><path class="cls-1" d="M237.49,164.18c-1.44-2.29-11.35-7.06-11.35-7.06-3.91-1.94-32.7-16-38.11-18-4.63-1.66-9.88-3.55-14.58,3.45-3.58,5.29-14,17.5-17.44,21.35-2.39,2.72-4.57,3.61-9.87,1-.89-.43-26.53-11.39-44.22-27-15.68-13.85-26.55-31-30.5-37.7-2.43-4.1-.84-6,2.15-9,1.85-1.8,10-11.63,10.61-12.57,1.3-2,3.61-6.7,3.61-6.7,2.34-4.62.88-8.65-.43-11.3-.93-1.83-15.69-37.37-17.1-40.72-4.21-10-8.7-10.56-13-10.32-2.09.15-21.63.3-27.85,7.06l-1.1,1.16C22.21,24.22,9.5,37.66,9.5,63.68a70.49,70.49,0,0,0,2.93,19.25c3.63,12.53,10.73,26.25,20.11,38.8.21.27,14.5,20.12,21.64,28.35,22.61,26,48.14,45.25,73.9,55.31,32.91,12.86,47,15.8,54.94,15.8,3.49,0,10.83-1.77,12.42-1.92,10.06-.91,34-13.36,39-27.35C239.17,178.71,239.27,167.15,237.49,164.18Z"/></svg>