<svg id="Layer_1" data-name="Layer 1" xmlns="http://www.w3.org/2000/svg" viewBox="0 0 284.28 250.56"><defs><style>.cls-1{stroke:#000;stroke-miterlimit:10;stroke-width:4px;}</style></defs><path class="cls-1" d="M273.33,109.9l-27.1-23.49V47.06a15,15,0,0,0-15-15H212.74a15.05,15.05,0,0,0-14.81,12.45L155.91,8a21.15,21.15,0,0,0-27.57,0L10.5,110.3a21.14,21.14,0,0,0-7.23,16,20.9,20.9,0,0,0,1.31,7.31,21.15,21.15,0,0,0,19.69,13.65h16.5V233a14.71,14.71,0,0,0,14.7,14.69h56.88v-72.9a11,11,0,0,1,11-11h37.59a11,11,0,0,1,11,11v72.9h56.85A14.73,14.73,0,0,0,243.49,233V147.21H260a21,21,0,0,0,13.34-37.31ZM260,135H231.27v98a2.49,2.49,0,0,1-2.5,2.48H184.13V174.78a23.23,23.23,0,0,0-23.2-23.21H123.34a23.23,23.23,0,0,0-23.2,23.21v60.69H55.47A2.48,2.48,0,0,1,53,233V135H24.27a8.81,8.81,0,0,1-5.77-15.47L136.35,17.21a8.88,8.88,0,0,1,11.56,0l62,53.86v-24a2.83,2.83,0,0,1,2.82-2.82h18.47a2.81,2.81,0,0,1,2.8,2.82V92l31.49,27.29A8.83,8.83,0,0,1,260,135Z"/></svg>