<svg id="Layer_1" data-name="Layer 1" xmlns="http://www.w3.org/2000/svg" viewBox="0 0 272.74 250.25"><defs><style>.cls-1{fill:none;stroke:#000;stroke-miterlimit:10;stroke-width:14px;}</style></defs><path class="cls-1" d="M257.83,149.77,164.39,58a16.53,16.53,0,0,0-12.12-5.12l-50.85.45A124.29,124.29,0,0,0,79,31.6c-17.17-13-36.17-21.1-49.59-21.1-9,0-13.57,3.55-15.82,6.52-4.91,6.47-3.9,16.41,2.82,28,6.11,10.53,16.36,21.55,28.89,31A122.49,122.49,0,0,0,74.52,92.73l.35,38.89a16.58,16.58,0,0,0,5,11.74,1.49,1.49,0,0,0,.23.27l93.49,91.88c8.33,8.17,16.95,3.42,25.12-4.89L253.39,175C261.55,166.66,266.15,158,257.83,149.77ZM50.22,69.53c-11.67-8.85-21.17-19-26.74-28.62C18.66,32.61,17.4,25.53,20.1,22c2-2.71,6.19-3.28,9.29-3.28,11.72,0,28.82,7.45,44.64,19.44A122.54,122.54,0,0,1,90.78,53.38,16.62,16.62,0,0,0,74.33,70.15l.12,13.75A118.71,118.71,0,0,1,50.22,69.53Z"/><circle cx="126.91" cy="102.81" r="16.64"/></svg>